<?xml version="1.0" standalone="no"?>
<svg version="1.1" preserveAspectRatio="none" viewBox="-5.500499999999999 0 57 57" class="ng-element" data-id="ae6ddf5b2b9947747e101c21e0249cb6" style="fill: rgb(0, 38, 53); width: 75px; height: 75px;" xmlns="http://www.w3.org/2000/svg"><g>
	<g>
		<path d="M6.6,4c-0.6,0-1,0.4-1,1c0,0.6,0.5,1,1,1H45c0.6,0,1-0.4,1-1c0-0.6-0.5-1-1-1H6.6z M45,8H6.6c-0.6,0-1,0.4-1,1    c0,0.6,0.5,1,1,1H45c0.6,0,1-0.4,1-1C46,8.4,45.5,8,45,8z M7.1,12C4.3,12,2,10,2,7.5V6.5C2,4,4.3,2,7.1,2h38.4V0H7.1    C3.2,0,0,2.9,0,6.5v0.9c0,0.2,0,0.5,0,0.7V50c0,3.9,3.1,7,7,7h31.3c3.9,0,7.6-3.1,7.6-7V12H7.1z M44,51h-0.1    c-0.1,0.7-0.5,1.4-0.9,2v0h0c-0.9,1.2-3,2-4.6,2H7.1c-1.6,0-3.1-0.8-4-2h0v0c-0.4-0.6-0.8-1.2-0.9-2H2V12c1.3,1.2,3.1,2,5.1,2h37    V51z M12.7,34h20.6c1.5,0,2.7-1.2,2.7-2.7v-8.6c0-1.5-1.2-2.7-2.7-2.7H12.7c-1.5,0-2.7,1.2-2.7,2.7v8.6C10,32.8,11.2,34,12.7,34z     M12,22.7c0-0.4,0.3-0.7,0.7-0.7h20.6c0.4,0,0.7,0.3,0.7,0.7v8.6c0,0.4-0.3,0.7-0.7,0.7H12.7c-0.4,0-0.7-0.3-0.7-0.7V22.7z     M26.8,43h-8.1c-0.6,0-1,0.4-1,1c0,0.6,0.5,1,1,1h8.1c0.6,0,1-0.4,1-1C27.8,43.4,27.3,43,26.8,43z M24.8,47h-4c-0.6,0-1,0.4-1,1    c0,0.6,0.5,1,1,1h4c0.6,0,1-0.4,1-1C25.8,47.4,25.3,47,24.8,47z" style="fill: rgb(0, 38, 53);"/>
	</g>
</g><g/></svg>