<?xml version="1.0" standalone="no"?>
<svg version="1.1" preserveAspectRatio="none" viewBox="0 0 52 52" class="ng-element" data-id="2bc0356909f262749d5fec0d38b1b9ff" style="fill: rgb(0, 38, 53); width: 38px; height: 38px;" xmlns="http://www.w3.org/2000/svg"><g><g xmlns:default="http://www.w3.org/2000/svg">
	<g>
		<path d="M26,0C11.7,0,0,11.7,0,26c0,14.3,11.7,26,26,26c14.3,0,26-11.7,26-26C52,11.7,40.3,0,26,0z M9.8,43.7    c2.4-2.3,5.9-3.5,10.7-3.5h1l0-5.3l-1.2,0.3c0,0-0.4,0.1-1,0.1c-1.7,0-4.9-0.5-8.7-3.9c2-0.9,4.9-3,5.7-8.2l0-0.1    c0-0.1,0.4-13,9.1-14c0,0,3.9-0.7,7,2.5C35,14.2,36.2,19,36,25.7l0,0.1l0,0.1c0,0.2,0.8,3.9,4.3,5.4c-1.3,1.3-4.3,3.5-9.5,3.7    l-1.1,0.1l0.6,5.4l0.9,0c0,0,0.1,0,0.3,0c1.5,0,6.8,0.2,10.4,3.5C37.7,47.7,32.1,50,26,50C19.8,50,14.1,47.6,9.8,43.7z M43.4,42.5    c-0.9-0.8-1.9-1.6-3.2-2.1c-3.2-1.6-6.5-1.9-8.2-1.9L31.9,37c7.8-0.8,10.8-5.4,10.9-5.6l0.8-1.2l-1.4-0.3    c-3.2-0.7-4.1-3.6-4.2-4.2c0.2-7.2-1.2-12.4-4.2-15.5c-2.6-2.7-5.8-3.1-7.4-3.1c-0.8,0-1.3,0.1-1.3,0.1c-4.3,0.5-7.6,3.5-9.4,8.6    c-1.2,3.5-1.4,6.8-1.4,7.3c-1,6.4-5.6,7-5.8,7l-2.1,0.2l1.5,1.5c5.1,5.1,9.5,5.6,11.6,5.6v0.9c-4.8,0.2-8.6,1.6-11.1,4.1    C4.4,38,2,32.3,2,26C2,12.8,12.8,2,26,2s24,10.8,24,24C50,32.4,47.5,38.2,43.4,42.5z" style="fill: rgb(0, 38, 53);"/>
	</g>
</g></g></svg>